<svg xmlns="http://www.w3.org/2000/svg" viewBox="0 0 414 375"><path fill="#8b7fd6" fill-rule="evenodd" d="M274.59 2 286.25 1.9 298.25 3.95 309.75 8.04 320.5 14.1 326.5 19 335.71 29.25 339.68 35.25 344.39 44.5 356.5 50.11 363.5 55.04 373.75 65.25 378.68 72.25 386.73 89.5 388.8 96.75 390.06 104.5 399.72 111.25 404.72 116.25 408.66 122.5 411.81 131.5 411.86 138 411 138.83 407.25 137.65 402.25 133.75 398.07 128.5 395.07 122.75 392.98 117.5 391.85 110.5 391.25 110.01 390.82 111 391.88 120.5 391.92 188.25 404.5 200 406.68 203.25 410.82 213.25 410.77 223.25 409.5 223.75 406.25 221.7 399.84 215.25 395.09 207 393 200 392.77 196 391.75 195.62 390.88 234.75 391.86 239 391.83 251 388.67 260.5 382.75 268.47 381.16 268.75 378.92 263 378.97 248.75 381.12 242.75 386.88 232.75 386.87 126.75 385.9 120.5 385.85 111.75 384.94 109.5 384.83 105 382.77 95.5 377.67 83 370.5 71.07 358.75 59.46 349.5 54.08 348.6 54.5 351.81 67.25 351.94 71.5 352.86 73.75 352.93 80 353.85 83 354.04 122 357 125.47 364.5 131.15 368.68 136.25 372.8 144.5 373.8 148.25 373.87 156.75 372.75 157.8 369.33 155.75 365.45 152.75 362 148.44 356.95 139.25 354.83 127.5 354.02 127.25 352.86 172.75 351.78 178 345.5 189.72 340.73 194.5 338.25 195.62 336.87 192.75 336.88 182.75 338 178.28 341.07 171.25 349.86 160 349.88 90 347.82 72 346.25 65.45 345.85 79.75 342.71 88.75 340.68 92.5 336.47 97.75 332.5 100.6 330.92 99 330.89 85.75 333.01 79.5 339.08 70.25 345.25 64.35 345.87 63 342.79 52.5 337.67 41.25 332.5 33.15 328.01 27.75 320.5 21.03 310.75 15.08 300 10.92 288.75 8.88 278 8.9 275 9.85 270.25 9.93 261.75 12.02 253.5 14.98 245.25 19.11 241.01 22 241 22.66 245.5 22.95 253.25 24.98 263.5 30.11 271.5 37 277.67 45.25 282.8 56.5 285.83 67.75 287.52 87.75 297.5 95 306.69 105.25 310.65 111.5 315.7 122.25 319.81 134.5 320.91 143 321.83 145.25 321.9 151.75 322.88 157.5 322.19 291 323.06 293.5 326.39 297 330.67 303.25 333.73 311 334.88 317 334.85 322.25 333.75 326.41 332.5 326.88 330.33 325.75 325.06 320.5 321 313.35 318.88 306.75 317.88 282.75 317.88 152.25 315.83 138.75 311.79 125.5 305.6 113.25 301.5 107 293.5 99.02 289.25 96.02 288.25 96.11 287.87 97.25 287.77 192.75 286.93 206 286.88 256.25 287.13 271 290.84 285 290.86 293.25 287.75 303.34 283.75 309.49 282.03 308.5 279 301.75 277.89 297.25 277.91 286.5 279.02 281.75 282.88 272.75 282.89 136 282.5 135.14 281.88 135.75 278.7 149.5 274.68 157.5 271.72 161.5 268.5 164.68 261.75 168.85 259.97 168.25 259.87 163 263.02 152.5 268.5 144 275.25 138.05 282.75 133.25 282.84 114.5 281.96 92.5 281 91.07 271.75 87.95 263.25 87.28 253.5 87.94 244.25 91.08 232.25 98.05 222.25 108.05 215.09 119.25 209.01 133.5 204.91 149.75 204.84 154 203.9 156.75 203.5 170.5 203.91 184.75 204.81 187.25 204.92 192.5 205.82 194.75 207.95 209.5 211.77 225.75 214.94 244.75 215.84 246.75 215.92 250.5 216.84 252.75 216.92 256.5 217.83 258.75 218.91 271.5 219.83 274.5 219.9 282.5 220.85 287 221.9 322.5 222.83 326.25 222.94 331.5 226.08 342.25 230.27 349.75 236 355.42 242.5 359.7 257.75 365.77 279.86 371 280.44 372.25 270 372.77 259 371.88 193.75 371.5 116.75 372.72 116.25 371.93 117 371.05 120.5 370.82 138 366.8 147.25 363.72 156.5 359.51 163.47 354.75 168.25 350.33 172.71 345.5 178.59 336.5 182.71 327.25 186.81 315.25 190.82 294.5 190.91 288.25 191.86 284.25 192.02 262.75 191.87 242.25 190.9 236.5 190.85 228.25 189.89 224.25 189.86 216.5 188.93 213 188.84 205.5 187.92 202 187.81 195 186.93 192 186.84 185.25 185.92 181.75 185.84 174 184.9 169.5 184.82 161.75 183.91 158.25 182.83 139.5 181.96 137 180.83 126.5 176.76 110.75 170.5 96.42 168.46 93 163.75 88.15 158 88.01 152.48 90 149.03 92.25 141.79 99.5 138.18 105.25 134 116.26 131.94 125.75 131.86 131.5 130.89 137 129.91 192.5 129.88 253 130.87 256.75 130.85 267.25 128.8 275.25 124.5 282.71 120.25 286.75 119.13 286.5 118.02 284.5 116.88 280 116.96 269.25 120 260.45 125.88 250.75 125.88 138.75 127.91 120.5 130 112.5 133.08 105 136.06 99.25 140.3 93.25 147.25 87.1 157.54 82.25 150.25 78 146.5 76.94 136 76.9 131.5 77.98 123.25 82.1 119.25 85.18 112.29 93 107 102.41 102.93 113.5 100.92 122.5 100.8 126.5 99.91 128.5 99.84 135 98.9 140 97.81 239 95.75 247.25 92.5 253.59 87.49 259.75 82.25 263.52 81.12 263.5 80.1 256.25 80.98 250.25 83.06 244.5 86.25 239 93.85 231 93.88 144 94.84 137.75 94.9 128.5 96.95 117 100.03 105.75 103 98.42 111.59 84.75 118 78.39 124.25 74.23 131.5 71.04 136.25 69.92 148.5 69.98 155.5 72.02 163.68 76.25 169.1 81 174.68 87.25 178.68 93.25 183.68 103.5 184.21 106 185.5 107.35 186.95 91.75 191.84 71.25 192.44 63.5 191.81 52.75 188.69 42.5 184.5 36.01 175.75 27.28 166.25 21.98 151.5 17.9 135.25 17.88 132.75 18.81 128.75 18.94 118.5 22.05 108.25 27.1 95.25 37.1 85.25 49.07 77 63.42 72.95 73.5 69.92 83.5 67.92 92.5 67.8 96.25 66.92 98.25 65.89 108 77.74 119.25 81.51 125.25 83.8 130.75 84.24 139.25 83.75 142.4 82.5 142.81 80 141.47 73.05 134.5 67.99 124.5 66.89 120.5 66.8 112.75 66.25 111.63 65.47 112 64.88 122.25 64.88 294.25 67.84 304.5 67.88 312.75 65.7 320.5 62.68 326.5 60 329.66 59 329.36 57 325.34 54.88 317.75 54.95 307.5 60.36 292.25 59.79 253 59.25 252.51 58.9 253.25 58.83 259 57.74 263.25 53.68 271.5 49.5 276.75 44.5 280.67 42.14 281.5 41.88 270.75 43 266.39 47.83 257.5 59.86 246 58.94 148.5 59.89 110.5 61.91 93.75 62.8 92 62.93 88.5 65.92 76.5 71.03 61.5 77.67 49.25 78.01 47.5 72.46 49 63.25 54.15 53.57 62 47.25 69.01 42.18 76.25 37.17 85.5 30.97 102.5 28.92 112.25 28.83 116.25 27.92 118.5 27.82 126 26.9 130 26.89 155 36.38 163.25 42.58 171.5 45.82 180.25 45.88 188.75 45.44 189.75 44.25 189.81 39.3 186.75 33.33 179.5 30.96 175.25 28.93 169.25 27.93 164.25 27.89 159.25 27.5 158.51 27 158.76 26.85 224.25 23.63 233.25 19.75 239.49 14.75 244.45 13.25 244.6 11.91 239.75 11.88 232.5 12.99 227.25 15.07 222 18.1 216.25 22.86 210 22.88 174 21.96 163.25 21.95 139.25 22.85 132 22.94 121.5 23.88 116.5 23.5 115.81 22.92 116.25 20.82 127 17.75 134.6 14.75 139.48 8.48 145.75 3.75 148.62 2.8 148 2.9 138.75 5 132.4 9.25 125 15.04 119.25 23.75 113.34 26.96 98.25 31 86.4 37.08 74.25 43.06 65.25 48.25 59.03 58.03 50.25 66.5 45.09 75.5 40.96 84.5 38.65 92.25 30.04 102.25 22.08 110.45 17 126.5 10.96 140 8.9 148.5 8.9 151.5 9.81 156.25 9.92 167.37 13 179.5 19.25 183.75 22.32 192.48 31 198.75 42.4 201.5 49.93 211.25 36 223.01 24.25 232.29 17.25 237.25 14.1 252 7 262.25 3.97 274.59 2ZM238.18 29 244.25 28.95 249.5 29.98 255 32.07 263.64 37.25 269.41 43 273.67 49.25 276.75 55.45 279.81 64.5 281.84 76.25 281.76 84.5 280 84.88 271.75 81.97 264.25 80.93 251.75 81.9 241.5 84.98 231.25 90.15 220.35 99.25 215 105.27 210 112.31 203.05 125.5 197.25 142.47 195.89 130.5 196.9 101.25 197.84 98.25 198.95 86.5 203.02 69.5 207.13 59.5 212.13 50.25 222.1 37.25 229.25 31.04 238.18 29ZM134.15 125.25 139.5 129.03 145.5 135 149.67 141.25 152.83 150.25 152.5 160.37 150.25 159.65 146.26 156.75 140.07 149.5 137 143.25 134.92 137 133.89 129 134.15 125.25ZM132.14 184.25 133.5 184.31 142.5 191.18 147.63 197.25 151.86 206.75 152.87 212.75 152.84 216.5 152.1 217.75 150.75 217.9 148.25 216.65 144.16 213.25 138.08 205.5 134.92 199 132.14 184.25ZM289.23 187.25 298.5 194 304.67 202.25 307.8 209.5 308.8 214.75 308.73 220 307.75 221.22 304.25 219.65 300 216.2 294.08 208.5 289.93 197.25 288.93 190.25 289.23 187.25ZM280.46 209.25 281.5 209.16 281.76 210 280.92 211.75 279.8 222.25 277.68 228.75 271.74 238.5 268.5 241.7 263.5 244.74 262.89 244 262.47 237.5 262.98 232 265.05 226.25 269.25 219 275 213.27 280.46 209.25ZM323.79 234.25 326.5 235.1 333.25 240.25 337.5 245 339.5 248.42 342.81 256.25 343.29 262.75 342.5 266.86 341 266.66 336 263.49 333.04 260.5 329.08 254.5 324.95 244.75 323.79 234.25Z"/></svg>
